<svg aria-hidden="true" style="position: absolute; width: 0; height: 0; overflow: hidden;" version="1.1"
  xmlns="http://www.w3.org/2000/svg" xmlns:xlink="http://www.w3.org/1999/xlink">
  <defs>
    <symbol id="icon-arrow-top" viewBox="0 0 32 32">
      <path fill="#fff"
        d="M4.5 19.6l11.2-11.233c0.133-0.133 0.278-0.228 0.433-0.283s0.322-0.084 0.5-0.084 0.344 0.028 0.5 0.084c0.156 0.055 0.3 0.149 0.433 0.283l11.233 11.233c0.311 0.311 0.467 0.7 0.467 1.167s-0.167 0.867-0.5 1.2c-0.333 0.333-0.722 0.5-1.167 0.5s-0.833-0.167-1.167-0.5l-9.8-9.8-9.8 9.8c-0.311 0.311-0.694 0.467-1.149 0.467s-0.851-0.167-1.184-0.5-0.5-0.722-0.5-1.167c0-0.444 0.167-0.833 0.5-1.167z">
      </path>
    </symbol>
    <symbol id="icon-logo" viewBox="0 0 125 32">
      <path fill="#f6f6f6" style="fill: var(--color1, #f6f6f6)"
        d="M0 2.286l14.008 13.862 13.421 13.567v-27.429h-27.429z"></path>
      <path fill="#f6f6f6" style="fill: var(--color1, #f6f6f6)"
        d="M3.821 5.91l10.237 10.139 9.649 9.845h-19.886v-19.984z"></path>
      <path fill="#4f2ee8" style="fill: var(--color2, #4f2ee8)"
        d="M23.771 25.959l-10.238-10.139-9.648-9.845h19.886v19.984z"></path>
      <path fill="#4f2ee8" style="fill: var(--color2, #4f2ee8)" d="M7.935 10.024l11.657 11.658h-11.657v-11.657z"></path>
      <path fill="#f6f6f6" style="fill: var(--color1, #f6f6f6)" d="M7.935 10.024l11.657 11.658v-11.657h-11.657z"></path>
      <path fill="var(--dark-logo)" style="fill: var(--dark-logo, #4f2ee8)"
        d="M47.659 12.266c0-2.366-1.749-3.703-4.773-3.703h-6.315v14.709h6.665c3.045 0 4.999-1.461 4.999-4.299 0-2.201-1.317-3.333-2.859-3.6v-0.041c1.214-0.411 2.283-1.255 2.283-3.065zM39.019 14.653v-4.011h3.929c1.461 0 2.263 0.72 2.263 2.016s-0.658 1.995-2.407 1.995h-3.785zM39.019 16.483h4.299c1.543 0 2.469 0.843 2.469 2.345 0 1.378-0.638 2.366-2.736 2.366h-4.032v-4.711zM54.517 23.581c-3.291 0-5.287-2.283-5.287-5.554s1.995-5.554 5.287-5.554c3.291 0 5.287 2.283 5.287 5.554s-1.995 5.554-5.287 5.554zM54.517 21.811c2.057 0 3.127-1.625 3.127-3.785 0-2.181-1.070-3.785-3.127-3.785s-3.127 1.605-3.127 3.785c0 2.16 1.070 3.785 3.127 3.785zM66.027 23.581c-3.291 0-5.287-2.283-5.287-5.554s1.995-5.554 5.287-5.554c3.291 0 5.287 2.283 5.287 5.554s-1.995 5.554-5.287 5.554zM66.027 21.811c2.057 0 3.127-1.625 3.127-3.785 0-2.181-1.070-3.785-3.127-3.785s-3.127 1.605-3.127 3.785c0 2.16 1.070 3.785 3.127 3.785zM72.807 8.563v14.709h2.16v-3.806l1.461-1.378 3.312 5.184h2.592l-4.423-6.603 3.991-3.909h-2.654l-4.279 4.217v-8.414h-2.16zM87.538 16.915c-1.522-0.35-2.695-0.432-2.695-1.502 0-0.741 0.699-1.234 1.995-1.234 1.687 0 2.098 0.843 2.242 1.666h2.098c-0.144-1.831-1.502-3.374-4.361-3.374-2.633 0-4.155 1.378-4.155 3.106 0 2.386 2.263 2.715 3.929 3.106 1.543 0.37 2.798 0.473 2.798 1.79 0 0.658-0.638 1.399-2.139 1.399-2.222 0-2.715-0.967-2.818-2.098h-2.098c0.103 2.222 1.563 3.806 4.958 3.806 2.551 0 4.279-1.255 4.279-3.271 0-2.51-2.098-2.942-4.032-3.394zM98.633 12.472c-1.769 0-2.859 0.823-3.415 1.646h-0.041v-5.554h-2.16v14.709h2.16v-6.398c0-1.563 1.131-2.571 2.715-2.571 1.502 0 2.098 0.905 2.098 2.325v6.645h2.181v-7.262c0-2.407-1.543-3.538-3.538-3.538zM108.795 21.811c-1.913 0-3.045-1.461-3.045-3.23h8.064c0-3.744-1.666-6.11-5.061-6.11-3.168 0-5.163 2.139-5.163 5.554 0 3.291 1.995 5.554 5.266 5.554 2.695 0 4.258-1.522 4.793-3.518h-2.16c-0.185 0.638-0.905 1.749-2.695 1.749zM108.754 14.179c1.749 0 2.901 1.173 2.901 2.798h-5.904c0-1.625 1.255-2.798 3.003-2.798zM115.337 8.563v14.709h2.181v-14.709h-2.181zM124.573 10.333v-1.769c-0.432-0.090-0.929-0.142-1.438-0.144h-0.002c-1.728 0-2.674 0.782-2.674 3.003v1.337h-1.502v1.769h1.502v8.743h2.181v-8.743h1.934v-1.769h-1.934v-1.152c0-1.193 0.535-1.337 1.934-1.275z">
      </path>
    </symbol>
    <symbol id="icon-arrow-right" viewBox="0 0 43 32">
      <path fill="none" stroke="#eac645" style="stroke: var(--color4, #eac645)" stroke-linejoin="round"
        stroke-linecap="round" stroke-miterlimit="4" stroke-width="5.3333"
        d="M3.555 16h35.557M39.112 16l-13.333-13.333M39.112 16l-13.333 13.333"></path>
    </symbol>
    <symbol id="icon-close" viewBox="0 0 32 32">
      <path stroke-linejoin="round" stroke-linecap="round" stroke-miterlimit="4" stroke-width="5.3333"
        d="M28.444 3.556l-24.889 24.889M3.556 3.556l24.889 24.889"></path>
    </symbol>
    <symbol id="icon-burger" viewBox="0 0 32 32">
      <path stroke-linejoin="round" stroke-linecap="round" stroke-miterlimit="4" stroke-width="2.2857"
        d="M22.666 13.334h-18.666M28 8h-24M28 18.666h-24M22.666 24h-18.666"></path>
    </symbol>
    <symbol id="icon-basket" viewBox="0 0 25 32">
      <path fill="var(--dark-logo)" style="fill: var(--dark-logo, #4f2ee8)"
        d="M22.816 8.592h-4.444v-1.481c0-3.273-2.653-5.926-5.926-5.926s-5.926 2.653-5.926 5.926v0 1.481h-4.444c-0.001 0-0.001 0-0.002 0-0.818 0-1.481 0.663-1.481 1.481 0 0.001 0 0.001 0 0.002v-0 16.295c0 2.455 1.99 4.444 4.444 4.444v0h14.816c2.455 0 4.444-1.99 4.444-4.444v0-16.295c0-0.001 0-0.001 0-0.002 0-0.818-0.663-1.481-1.481-1.481v0zM9.483 7.111c0.041-1.605 1.351-2.891 2.963-2.891s2.922 1.286 2.963 2.887l0 0.004v1.481h-5.927v-1.481zM21.333 26.37c0 0.001 0 0.001 0 0.002 0 0.818-0.663 1.481-1.481 1.481h-14.816c-0.818 0-1.481-0.663-1.481-1.481 0-0.001 0-0.001 0-0.002v0-14.814h2.964v1.481c0 0.818 0.663 1.481 1.481 1.481s1.481-0.663 1.481-1.481v0-1.481h5.927v1.481c0 0.818 0.663 1.482 1.482 1.482s1.482-0.663 1.482-1.482v0-1.481h2.962v14.814z">
      </path>
    </symbol>
    <symbol id="icon-toggle" viewBox="0 0 32 32">
      <path
        d="M14.769 24.615c6.118 0 11.077-4.959 11.077-11.077s-4.959-11.077-11.077-11.077v0c-6.118 0-11.077 4.959-11.077 11.077s4.959 11.077 11.077 11.077v0z">
      </path>
      <path
        d="M14.769 22.769c5.098 0 9.231-4.133 9.231-9.231s-4.133-9.231-9.231-9.231v0c-5.098 0-9.231 4.133-9.231 9.231s4.133 9.231 9.231 9.231v0z">
      </path>
      <path d="M14.769 21.538c4.418 0 8-3.582 8-8s-3.582-8-8-8v0c-4.418 0-8 3.582-8 8s3.582 8 8 8v0z"></path>
    </symbol>
    <symbol id="icon-trident" viewBox="0 0 20 32">
      <path
        d="M9.005 30.888a8.64 8.64 0 0 1-3.414-5.351H0V2.42c2.991 1.443 5.153 4.599 5.388 7.876l.846 6.493-.407-.045c-.893 0-1.676.812-1.676 1.608 0 .752.595 1.383 1.378 1.548l1.018.226c1.676-3.051 2.631-6.042 2.631-8.973 0-2.645-.36-5.291-.423-7.996 0-1.202.486-2.3 1.253-3.156.783.857 1.253 1.954 1.253 3.156 0 2.705-.423 5.351-.423 7.996 0 2.931.955 5.922 2.631 8.973l1.018-.226c.783-.165 1.378-.812 1.378-1.548 0-.812-.783-1.608-1.676-1.608l-.423.06.846-6.493c.423-3.277 2.396-6.448 5.388-7.876v23.117h-5.576c-.423 2.179-1.613 4.148-3.414 5.351-.423.286-.783.631-1.018 1.097-.219-.466-.579-.812-.987-1.112zM2.647 17.556c.235-.857.893-1.608 1.738-2.074l-.658-5.351a8.288 8.288 0 0 0-2.036-4.374v11.784h.955v.015zm2.819 6.373c0-.812.125-1.548.298-2.3l-.783-.18c-1.143-.346-2.036-1.203-2.334-2.3h-.955v4.78h3.774zm3.712 0c0-.977-.783-1.834-1.801-1.954-.172.631-.298 1.263-.298 1.954h2.099zm0 1.623H7.314c.298 1.263.955 2.42 1.864 3.397v-3.397zm2.631-5.005c-.72-1.262-1.378-2.585-1.801-3.968-.423 1.383-1.081 2.706-1.801 3.968.72.165 1.316.631 1.801 1.157.486-.526 1.081-.992 1.801-1.157zm1.143 3.382c0-.691-.125-1.323-.297-1.954-1.018.12-1.801.977-1.801 1.954h2.099zm-.235 1.623h-1.864v3.397c.908-.992 1.566-2.134 1.864-3.397zm5.623-1.623v-4.78h-.955c-.298 1.097-1.206 1.954-2.334 2.3l-.783.18c.172.752.298 1.488.298 2.3h3.774zm0-6.373V5.757c-1.081 1.202-1.864 2.706-2.036 4.374l-.658 5.351c.846.466 1.504 1.203 1.739 2.074h.955z" />
    </symbol>
    <symbol id="icon-arrow-down" viewBox="0 0 32 32">
      <path
        d="M15.053 17.867a1.334 1.334 0 0 0 1.894 0l6.107-6.12a1.344 1.344 0 0 1 .947-.395 1.331 1.331 0 0 1 .947.395 1.336 1.336 0 0 1 0 1.88l-6.12 6.12a4.001 4.001 0 0 1-5.654 0l-6.12-6.12a1.337 1.337 0 0 1 .434-2.172 1.331 1.331 0 0 1 1.46.292l6.107 6.12z" />
    </symbol>
    <symbol id="icon-mobile-basket" viewBox="0 0 32 32">
      <path fill="#fff" style="fill: var(--color1, #fff)"
        d="M25.333 9.333h-4v-1.333c0-2.946-2.388-5.334-5.334-5.334s-5.334 2.388-5.334 5.334v0 1.333h-4c-0.736 0-1.333 0.597-1.333 1.333 0 0.001 0 0.001 0 0.002v-0 14.666c0 2.209 1.791 4 4 4v0h13.333c2.209 0 4-1.791 4-4v0-14.666c0-0.736-0.597-1.334-1.333-1.334h-0zM13.333 8c-0.001-0.019-0.001-0.042-0.001-0.065 0-1.473 1.194-2.667 2.667-2.667s2.667 1.194 2.667 2.667c0 0.023-0 0.046-0.001 0.069l0-0.003v1.333h-5.333v-1.333zM24 25.333c0 0 0 0.001 0 0.002 0 0.736-0.597 1.333-1.333 1.333-0.001 0-0.001 0-0.002 0h-13.333c-0.736 0-1.333-0.597-1.333-1.333 0-0.001 0-0.001 0-0.002v0-13.333h2.666v1.333c0 0.737 0.597 1.334 1.334 1.334s1.334-0.597 1.334-1.334v0-1.333h5.333v1.333c0 0.737 0.597 1.334 1.334 1.334s1.334-0.597 1.334-1.334v0-1.333h2.667v13.333z">
      </path>
    </symbol>
    <symbol id="icon-trash" viewBox="0 0 32 32">
      <path style="stroke: var(--color1, #fff)" stroke-linejoin="round" stroke-linecap="round"
        stroke-miterlimit="4" stroke-width="2"
        d="M12 4h8M4 8h24M25.334 8l-0.936 14.026c-0.14 2.104-0.21 3.156-0.664 3.954-0.406 0.703-0.997 1.259-1.709 1.61l-0.023 0.010c-0.826 0.4-1.88 0.4-3.99 0.4h-4.024c-2.11 0-3.164 0-3.99-0.4-0.735-0.361-1.326-0.917-1.722-1.601l-0.010-0.019c-0.454-0.798-0.524-1.85-0.664-3.954l-0.936-14.026M13.334 14v6.666M18.666 14v6.666">
      </path>
    </symbol>
    <symbol id="icon-auth-close" viewBox="0 0 32 32">
      <path stroke-linecap="round" stroke-linejoin="round" stroke-width="3.429" d="M24 8 8 24M8 8l16 16" />
    </symbol>
    <symbol id="icon-auth-lock" viewBox="0 0 32 32">
      <path stroke-linecap="round" stroke-linejoin="round" stroke-width="2.286"
        d="M22.667 14.667v-4a6.667 6.667 0 0 0-13.334 0v4M10.4 28h11.2c2.24 0 3.36 0 4.216-.436a3.991 3.991 0 0 0 1.748-1.748C28 24.96 28 23.84 28 21.6v-.533c0-2.24 0-3.36-.436-4.216a3.991 3.991 0 0 0-1.748-1.748c-.856-.436-1.976-.436-4.216-.436H10.4c-2.24 0-3.36 0-4.216.436a3.996 3.996 0 0 0-1.748 1.748C4 17.707 4 18.827 4 21.067v.533c0 2.24 0 3.36.436 4.216a3.991 3.991 0 0 0 1.748 1.748C7.04 28 8.16 28 10.4 28z" />
    </symbol>
    <symbol id="icon-auth-mail" viewBox="0 0 32 32">
      <path stroke-linecap="round" stroke-linejoin="round" stroke-width="2.286"
        d="m28.667 24-8.857-8m-7.619 0-8.857 8M2.667 9.333l10.886 7.621c.882.617 1.322.926 1.802 1.045.424.106.866.106 1.29 0 .479-.12.92-.428 1.802-1.045l10.887-7.621M9.067 26.667h13.867c2.24 0 3.36 0 4.216-.436a3.996 3.996 0 0 0 1.748-1.748c.436-.856.436-1.976.436-4.216v-8.533c0-2.24 0-3.36-.436-4.216A3.996 3.996 0 0 0 27.15 5.77c-.856-.436-1.976-.436-4.216-.436H9.067c-2.24 0-3.36 0-4.216.436a3.991 3.991 0 0 0-1.748 1.748c-.436.856-.436 1.976-.436 4.216v8.533c0 2.24 0 3.36.436 4.216a3.996 3.996 0 0 0 1.748 1.748c.856.436 1.976.436 4.216.436z" />
    </symbol>


  </defs>
</svg>